<?xml version="1.0" encoding="utf-8"?>
<!-- Generator: Adobe Illustrator 22.0.1, SVG Export Plug-In . SVG Version: 6.00 Build 0)  -->
<svg version="1.1" id="Layer_1" xmlns="http://www.w3.org/2000/svg" xmlns:xlink="http://www.w3.org/1999/xlink" x="0px" y="0px"
	 viewBox="0 0 907 320" style="enable-background:new 0 0 907 320;" xml:space="preserve">
<style type="text/css">
	.st0{fill:#F6DEC4;}
	.st1{fill:#FEFEFE;}
	.st2{fill:#C3CDE0;}
	.st3{fill:#D0D9C6;}
	.st4{fill:#C8D1BE;}
</style>
<g>
	<path class="st0" d="M189,321c-33.7,0-67.3,0-101,0c-5.7-6.3-11.7-12.3-17.1-18.8c-19.3-23.3-36-48.1-47.9-76
		c-7.4-17.3-12.7-35.2-16-53.7C5.5,164,4.4,155.5,3.2,147c0-7.7,0-15.4,0-23.1c1.3-1.6,0.8-3.5,0.7-5.3c-0.4-8.7,1-17.2,2.4-25.7
		C11,64.4,20.9,37.6,34.4,12.1C36.4,8.4,39.1,5.2,40,1c68,0,136,0,204,0c8.2,2,16.5,2.8,24.8,4.2c26.6,4.7,53.1,9.8,79.4,15.5
		C400.5,32.2,452,46.2,502.9,62.5c42.3,13.5,83.8,29,124.8,46.2c34.4,14.4,68.3,29.7,101.6,46.5c1.3,0.7,3.2,1,3.3,3
		c-0.4,0.3-0.7,0.6-1,0.7c-19.6,1.7-39.1,4.3-58.7,7c-23.8,3.3-47.5,7.1-71.1,11.5c-26.9,5-53.5,11-80.1,17.6
		c-30.4,7.6-60.7,15.8-90.6,25.2c-24.6,7.8-48.8,16.4-73.1,25.2c-27.5,10-54.5,21.2-81.3,32.9c-28.2,12.3-55.8,26.1-83.2,40
		C192,319,190.1,319.4,189,321z"/>
	<path class="st1" d="M189,321c1.1-1.6,3-2,4.6-2.8c27.5-13.9,55-27.7,83.2-40c26.8-11.7,53.8-22.9,81.3-32.9
		c24.2-8.8,48.5-17.4,73.1-25.2c29.9-9.4,60.2-17.6,90.6-25.2c26.5-6.7,53.2-12.6,80.1-17.6c23.6-4.4,47.3-8.2,71.1-11.5
		c19.5-2.7,39-5.3,58.7-7c0.3,0,0.5-0.3,1-0.7c-0.1-2.1-2-2.3-3.3-3c-33.3-16.8-67.2-32.1-101.6-46.5c-41-17.1-82.5-32.7-124.8-46.2
		C452,46.2,400.5,32.2,348.2,20.8C321.9,15,295.4,10,268.8,5.2C260.5,3.8,252.2,3,244,1c75.7,0,151.3,0,227,0c1,1.3,2.6,1.4,4,1.8
		c14.8,4.5,29.7,8.7,44.3,13.5c51.3,17,101.8,36.1,151.3,57.9c28.2,12.4,56,25.4,83.5,39.2c46.8,23.6,92.2,49.8,136.4,78
		c2.9,1.8,3.7,1.3,4.8-1.7c6.5-18,9.4-36.6,10.6-55.5c1.2-20-1.2-39.8-5.9-59.2c-4.7-19.8-11.4-38.8-20.8-56.9
		c-2.9-5.5-7-10.6-8.1-16.9c11.2,0,22.3,0.1,33.5-0.1c3-0.1,3.6,0.6,3.6,3.6c-0.1,41.3-0.1,82.7-0.1,124c0,62.8,0,125.7,0.1,188.5
		c0,3.4-0.7,4.1-4.1,4.1c-30-0.2-60-0.1-90-0.1c5-5.7,10-11.3,15-17c2.8-1.6,4.2-4.7,6.3-7c8-8.7,15-18.2,22-27.7
		c1.6-2.1,2.1-3.5-1.5-3.4c-6.2,0.1-12.3-0.2-18.5,0.2c-22.2,1.2-44.4,2.5-66.5,3.9c-8.3,0.5-16.5,1.3-24.8,2.2
		c-13.5,1.5-27,3.1-40.4,4.8c-13.6,1.7-27.2,3.5-40.8,5.6c-16.5,2.6-33,5.3-49.4,8.5c-14.6,2.8-29.3,5.4-43.5,9.7
		c-0.3,0-0.7,0-1,0.1c-24,5.1-47.7,11.4-71.3,17.7c-1.2,0.3-2.8,0.4-2.6,2.4c-0.7,0-1.3,0-2,0c-0.3-0.9-0.7-0.7-1,0
		C392.3,321,290.7,321,189,321z"/>
	<path class="st2" d="M871,1c1.2,6.4,5.3,11.4,8.1,16.9c9.4,18.1,16.1,37.2,20.8,56.9c4.7,19.5,7.1,39.2,5.9,59.2
		c-1.1,18.9-4.1,37.6-10.6,55.5c-1.1,3.1-1.9,3.6-4.8,1.7c-44.2-28.2-89.6-54.3-136.4-78c-27.5-13.9-55.4-26.8-83.5-39.2
		c-49.5-21.8-100-40.9-151.3-57.9c-14.7-4.9-29.6-9-44.3-13.5c-1.4-0.4-3-0.5-4-1.8C604.3,1,737.7,1,871,1z"/>
	<path class="st3" d="M829,304c-5,5.7-10,11.3-15,17c-105.7,0-211.3,0-317,0c-0.1-1.9,1.4-2,2.6-2.4c23.7-6.3,47.4-12.6,71.3-17.7
		c0.3-0.1,0.7,0,1-0.1c1.7,2,4.1,1.1,6.1,1.1c81,0,162.1,0,243.1,0.1C823.9,302,826.9,301.4,829,304z"/>
	<path class="st1" d="M3.2,147c1.3,8.5,2.3,17,3.8,25.4c3.3,18.5,8.7,36.4,16,53.7c11.9,28,28.6,52.8,47.9,76
		c5.4,6.5,11.4,12.5,17.1,18.8c-27.7,0-55.3,0-83,0c-2.4-5-2-10.3-2-15.5c0-33.7,0-67.3,0-101C3,185.4,3.1,166.2,3.2,147z"/>
	<path class="st1" d="M40,1c-0.9,4.2-3.6,7.4-5.6,11.1C20.9,37.6,11,64.4,6.3,93c-1.4,8.4-2.8,17-2.4,25.7c0.1,1.8,0.5,3.7-0.7,5.3
		C3.1,83,3.1,42,3,1C15.3,1,27.7,1,40,1z"/>
	<path class="st4" d="M494,321c0.3-0.7,0.7-0.9,1,0C494.7,321,494.3,321,494,321z"/>
	<path class="st3" d="M829,304c-2.1-2.6-5.1-2-7.9-2c-81,0-162.1,0-243.1-0.1c-2,0-4.4,0.9-6.1-1.1c14.3-4.3,28.9-6.9,43.5-9.7
		c16.4-3.2,32.9-5.9,49.4-8.5c13.6-2.1,27.2-3.9,40.8-5.6c13.5-1.7,26.9-3.3,40.4-4.8c8.2-0.9,16.5-1.6,24.8-2.2
		c22.2-1.4,44.3-2.7,66.5-3.9c6.1-0.3,12.3-0.1,18.5-0.2c3.6-0.1,3,1.3,1.5,3.4c-7,9.5-14,19-22,27.7
		C833.2,299.4,831.9,302.4,829,304z"/>
</g>
</svg>
